<svg width="64" height="64" viewBox="0 0 64 64" fill="none" xmlns="http://www.w3.org/2000/svg">
<path d="M41.9499 6.79366C41.555 6.27669 40.8119 6.17064 40.2899 6.56169L31.9765 12.7788L24.185 6.84669C23.6629 6.44901 22.9199 6.54844 22.5183 7.06542C22.1167 7.5824 22.2171 8.3181 22.7393 8.7158L31.0326 15.0257V40.338C31.0326 40.8682 31.4677 41.3057 32.0099 41.3057C32.5521 41.3057 32.9871 40.8749 32.9871 40.338V14.966L41.729 8.43741C42.2511 8.04636 42.3582 7.31065 41.9633 6.79366H41.9499Z" fill="#FD2E35"/>
<path d="M22.6786 2.38616L31.1862 8.86172C31.4005 9.0208 31.6549 9.10696 31.9091 9.10696C32.1635 9.10696 32.4111 9.02743 32.6254 8.86835L41.6618 2.11441C42.1839 1.72336 42.291 0.987657 41.8961 0.470673C41.5011 -0.0463106 40.7582 -0.152359 40.2361 0.238693L31.9226 6.45576L24.1245 0.523697C23.6023 0.126018 22.8594 0.225437 22.4578 0.742421C22.0562 1.25941 22.1566 1.99511 22.6786 2.39279V2.38616Z" fill="#FD2E35"/>
<path d="M25.6577 40.2319C25.6577 43.6983 28.5025 46.5152 32.0032 46.5152C35.504 46.5152 38.3488 43.6983 38.3488 40.2319C38.3488 38.038 37.2041 36.1026 35.4772 34.9824V37.6735C36.0194 38.3892 36.3406 39.2708 36.3406 40.2319C36.3406 42.598 34.3929 44.5268 32.0032 44.5268C29.6136 44.5268 27.6657 42.598 27.6657 40.2319C27.6657 39.2974 27.9737 38.4423 28.4824 37.7331V35.009C26.7822 36.1358 25.6577 38.0579 25.6577 40.2319Z" fill="#1A0516"/>
<path d="M16.8892 40.2319C16.8892 48.4838 23.6698 55.1979 32.0034 55.1979C40.3369 55.1979 47.1176 48.4838 47.1176 40.2319C47.1176 33.1664 42.1442 27.2278 35.4773 25.6702V27.7315C41.0197 29.2427 45.1094 34.2667 45.1094 40.2319C45.1094 47.3835 39.2325 53.2095 32.0034 53.2095C24.7742 53.2095 18.8973 47.3902 18.8973 40.2319C18.8973 34.2866 22.9602 29.2758 28.4825 27.7447V25.6834C21.8425 27.2608 16.8892 33.1796 16.8892 40.2319Z" fill="#1A0516"/>
<path d="M35.4707 16.7224V18.7308C45.9528 20.381 53.9919 29.3952 53.9919 40.232C53.9919 52.2418 44.1255 62.0116 31.9967 62.0116C19.8677 62.0116 10.0081 52.2418 10.0081 40.232C10.0081 29.4084 18.0204 20.4076 28.4825 18.7373V16.7224C16.9092 18.4192 8 28.3148 8 40.232C8 53.3356 18.7633 64 32.0033 64C45.2433 64 56.0067 53.3421 56.0067 40.232C56.0067 28.2949 47.0707 18.3926 35.4773 16.7158L35.4707 16.7224Z" fill="#1A0516"/>
</svg>
