<svg width="64" height="64" viewBox="0 0 64 64" fill="none" xmlns="http://www.w3.org/2000/svg">
<path d="M53.0923 17.23H10.1881C7.52739 17.23 5.3335 19.3972 5.3335 22.0512V47.0109C5.3335 49.6649 7.52739 51.8321 10.1881 51.8321H35.8079L30.9867 58.1137C30.5866 58.6338 30.6866 59.374 31.2067 59.7741C31.4202 59.9408 31.6735 60.0208 31.927 60.0208C32.2803 60.0208 32.6338 59.8608 32.8671 59.5608L39.3822 51.0852C39.7088 50.6652 39.7088 50.0784 39.3822 49.6516L32.5871 40.6493C32.1936 40.1292 31.4535 40.0224 30.9334 40.4158C30.4132 40.8093 30.3064 41.5494 30.6999 42.0696L36.268 49.4448H10.1881C8.80104 49.4448 7.72076 48.3778 7.72076 47.0176V22.0512C7.72076 20.6909 8.79438 19.624 10.1881 19.624H53.0856C54.4726 19.624 55.5528 20.6909 55.5528 22.0512V47.0109C55.5528 48.3712 54.4726 49.4381 53.0856 49.4381H44.4167V51.8321H53.0856C55.7463 51.8321 57.9402 49.6649 57.9402 47.0109V22.0512C57.9402 19.3972 55.7463 17.23 53.0856 17.23H53.0923Z" fill="#FD2E35"/>
<path d="M17.7366 4C15.8027 4 14.189 5.5804 14.189 7.51423C14.189 7.83431 14.309 8.14105 14.5358 8.36777C14.7624 8.59449 15.0692 8.7212 15.3892 8.7212C15.7094 8.7212 16.016 8.59449 16.2428 8.36777C16.4695 8.14105 16.5896 7.83431 16.5896 7.51423C16.5896 6.87407 17.0898 6.39395 17.7499 6.39395H45.5503C46.2104 6.39395 46.7106 6.88073 46.7106 7.51423C46.7106 7.83431 46.8306 8.14105 47.0572 8.36777C47.284 8.59449 47.5907 8.7212 47.9108 8.7212C48.231 8.7212 48.5376 8.59449 48.7644 8.36777C48.9911 8.14105 49.1111 7.83431 49.1111 7.51423C49.1111 5.5804 47.4907 4 45.5636 4H17.7366Z" fill="#1A0516"/>
<path d="M13.9623 10.5017C11.6684 10.5017 9.76123 12.3755 9.76123 14.6694C9.76123 14.9895 9.88126 15.2962 10.108 15.523C10.3347 15.7497 10.6415 15.8763 10.9615 15.8763C11.2816 15.8763 11.5884 15.7497 11.8151 15.523C12.0418 15.2962 12.1618 14.9895 12.1618 14.6694C12.1618 13.6691 12.9487 12.8957 13.9756 12.8957H49.3246C50.3515 12.8957 51.1384 13.6691 51.1384 14.6694C51.1384 14.9895 51.2584 15.2962 51.4851 15.523C51.7119 15.7497 52.0186 15.8763 52.3387 15.8763C52.6588 15.8763 52.9655 15.7497 53.1923 15.523C53.419 15.2962 53.539 14.9895 53.539 14.6694C53.539 12.3755 51.6319 10.5017 49.3379 10.5017H13.9623Z" fill="#1A0516"/>
</svg>
