<svg width="64" height="64" viewBox="0 0 64 64" fill="none" xmlns="http://www.w3.org/2000/svg">
<path d="M51.3335 62V56.6667L60.8308 44.8C61.5879 43.854 62.0003 42.6784 62.0002 41.4667V26C62.0002 24.9392 61.5787 23.9217 60.8286 23.1716C60.0784 22.4215 59.061 22 58.0002 22C56.9394 22 55.9219 22.4215 55.1718 23.1716C54.4216 23.9217 54.0002 24.9392 54.0002 26V35.3333" stroke="#1A0516" stroke-width="2" stroke-miterlimit="10"/>
<path d="M38 62V48.2093C38 47.5088 38.138 46.815 38.4061 46.1678C38.6743 45.5206 39.0672 44.9326 39.5627 44.4373L48.6667 35.3333C49.0168 34.983 49.4325 34.7052 49.8901 34.5156C50.3476 34.3261 50.838 34.2285 51.3333 34.2285C51.8287 34.2285 52.3191 34.3261 52.7765 34.5156C53.2341 34.7052 53.6499 34.983 54 35.3333C54.3503 35.6834 54.6281 36.0992 54.8177 36.5568C55.0072 37.0142 55.1048 37.5046 55.1048 38C55.1048 38.4952 55.0072 38.9857 54.8177 39.4432C54.6281 39.9008 54.3503 40.3165 54 40.6666L46 48.6666" stroke="#1A0516" stroke-width="2" stroke-miterlimit="10"/>
<path d="M14.0002 62V56.6667L4.50283 44.8C3.74572 43.854 3.33331 42.6784 3.3335 41.4667V26C3.3335 24.9392 3.75492 23.9217 4.50507 23.1716C5.25522 22.4215 6.27263 22 7.3335 22C8.39436 22 9.41178 22.4215 10.1619 23.1716C10.9121 23.9217 11.3335 24.9392 11.3335 26V35.3333" stroke="#1A0516" stroke-width="2" stroke-miterlimit="10"/>
<path d="M27.3333 62V48.2093C27.3333 47.5088 27.1953 46.815 26.9272 46.1678C26.6591 45.5206 26.2661 44.9326 25.7707 44.4373L16.6667 35.3333C16.3165 34.983 15.9008 34.7052 15.4432 34.5156C14.9857 34.3261 14.4952 34.2285 14 34.2285C13.5047 34.2285 13.0143 34.3261 12.5567 34.5156C12.0992 34.7052 11.6835 34.983 11.3333 35.3333C10.9831 35.6834 10.7052 36.0992 10.5156 36.5568C10.3261 37.0142 10.2285 37.5046 10.2285 38C10.2285 38.4952 10.3261 38.9857 10.5156 39.4432C10.7052 39.9008 10.9831 40.3165 11.3333 40.6666L19.3333 48.6666" stroke="#1A0516" stroke-width="2" stroke-miterlimit="10"/>
<path d="M18 18H47.3333" stroke="#FD2E35" stroke-width="2" stroke-miterlimit="10"/>
<path d="M32.6667 32.6666C40.7668 32.6666 47.3333 26.1001 47.3333 17.9999C47.3333 9.89975 40.7668 3.33325 32.6667 3.33325C24.5665 3.33325 18 9.89975 18 17.9999C18 26.1001 24.5665 32.6666 32.6667 32.6666Z" stroke="#FD2E35" stroke-width="2" stroke-miterlimit="10" stroke-linecap="square"/>
<path d="M32.6667 32.6666C36.138 32.6666 38.952 26.1001 38.952 17.9999C38.952 9.89975 36.138 3.33325 32.6667 3.33325C29.1955 3.33325 26.3813 9.89975 26.3813 17.9999C26.3813 26.1001 29.1955 32.6666 32.6667 32.6666Z" stroke="#FD2E35" stroke-width="2" stroke-miterlimit="10" stroke-linecap="square"/>
</svg>
